# xmcd
#
# Track frame offsets:
#	150
#	17655
#	34133
#	48131
#	63596
#	84806
#	98310
#	118995
#	133520
#	145933
#	155801
#	172491
#	191067
#	213135
#	232842
#	255096
#	272709
#	292641
#	308518
#	330509
#
# Disc length: 4630 seconds
#
# Revision: 0
# Processed by: cddbd v1.5.1PL0 Copyright (c) Steve Scherf et al.
# Submitted via: audiograbber 1.83.01
#
DISCID=07121414
DTITLE=Barbara Streisand - The Essential Barbara Streisand
DYEAR=2002
DGENRE=
TTITLE0=Woman In Love
TTITLE1=Cry Me A River
TTITLE2=Evergreen (Love Theme From "A Star is Born")
TTITLE3=You Don't Bring Me Flowers (Duet With Donna Summer)
TTITLE4=No More Tears (Duet With Donna Summer)
TTITLE5=My Man
TTITLE6=You'll Never Walk Alone
TTITLE7=Happy Days Are Here Again
TTITLE8=Don't Rain On My Parade
TTITLE9=On A Clear Day (You Can See Forever)
TTITLE10=People
TTITLE11=Someday My Prince Will Come
TTITLE12=Tell Him (Duet With Celine Dion)
TTITLE13=I Stayed Too Long At The Fair
TTITLE14=Somewhere
TTITLE15=Memory
TTITLE16=Guilty (Duet with Barry Gibb)
TTITLE17=Papa, Can You Hear Me
TTITLE18=I've Dreamed Of You
TTITLE19=I Finally Found Someone (Duet With Bryan Adams)
EXTD=
EXTT0=
EXTT1=
EXTT2=
EXTT3=
EXTT4=
EXTT5=
EXTT6=
EXTT7=
EXTT8=
EXTT9=
EXTT10=
EXTT11=
EXTT12=
EXTT13=
EXTT14=
EXTT15=
EXTT16=
EXTT17=
EXTT18=
EXTT19=
PLAYORDER=
